<svg xmlns="http://www.w3.org/2000/svg" xmlns:xlink="http://www.w3.org/1999/xlink" contentStyleType="text/css" data-diagram-type="CLASS" height="1073px" preserveAspectRatio="none" style="width:1084px;height:1073px;background:#FFFFFF;" version="1.1" viewBox="0 0 1084 1073" width="1084px" zoomAndPan="magnify"><?plantuml 1.2026.3beta4?><defs/><g><g class="title" data-source-line="9"><text fill="#000000" font-family="sans-serif" font-size="14" font-weight="700" lengthAdjust="spacing" textLength="0" x="538.5" y="10">UML de la Jerarqu&#237;a de Escenas</text></g><!--cluster Core (Motor)--><g class="cluster" data-qualified-name="Core .Motor." data-source-line="11" id="ent0002"><path d="M385.5,37 L457,37 A3.75,3.75 0 0 1 459.5,39.5 L466.5,47 L686.5,47 A2.5,2.5 0 0 1 689,49.5 L689,486.07 A2.5,2.5 0 0 1 686.5,488.57 L385.5,488.57 A2.5,2.5 0 0 1 383,486.07 L383,39.5 A2.5,2.5 0 0 1 385.5,37" fill="none" style="stroke:#000000;stroke-width:1.5;"/><line style="stroke:#000000;stroke-width:1.5;" x1="383" x2="466.5" y1="47" y2="47"/><text fill="#000000" font-family="sans-serif" font-size="14" font-weight="700" lengthAdjust="spacing" textLength="0" x="387" y="39">Core (Motor)</text></g><!--cluster Interfaces--><g class="cluster" data-qualified-name="Interfaces" data-source-line="39" id="ent0009"><path d="M8.5,520.57 L142.5,520.57 A3.75,3.75 0 0 1 145,523.07 L152,530.57 L559.5,530.57 A2.5,2.5 0 0 1 562,533.07 L562,630.36 A2.5,2.5 0 0 1 559.5,632.86 L8.5,632.86 A2.5,2.5 0 0 1 6,630.36 L6,523.07 A2.5,2.5 0 0 1 8.5,520.57" fill="none" style="stroke:#000000;stroke-width:1.5;"/><line style="stroke:#000000;stroke-width:1.5;" x1="6" x2="152" y1="530.57" y2="530.57"/><text fill="#000000" font-family="sans-serif" font-size="14" font-weight="700" lengthAdjust="spacing" textLength="0" x="10" y="522.57">Interfaces</text></g><!--cluster Narrativa--><g class="cluster" data-qualified-name="Narrativa" data-source-line="52" id="ent0016"><path d="M438.5,672.86 L550.75,672.86 A3.75,3.75 0 0 1 553.25,675.36 L560.25,682.86 L902.5,682.86 A2.5,2.5 0 0 1 905,685.36 L905,782.66 A2.5,2.5 0 0 1 902.5,785.16 L438.5,785.16 A2.5,2.5 0 0 1 436,782.66 L436,675.36 A2.5,2.5 0 0 1 438.5,672.86" fill="none" style="stroke:#000000;stroke-width:1.5;"/><line style="stroke:#000000;stroke-width:1.5;" x1="436" x2="560.25" y1="682.86" y2="682.86"/><text fill="#000000" font-family="sans-serif" font-size="14" font-weight="700" lengthAdjust="spacing" textLength="0" x="440" y="674.86">Narrativa</text></g><!--cluster Jugabilidad (Match)--><g class="cluster" data-qualified-name="Jugabilidad .Match." data-source-line="64" id="ent0022"><path d="M573.5,825.16 L693,825.16 A3.75,3.75 0 0 1 695.5,827.66 L702.5,835.16 L1066.5,835.16 A2.5,2.5 0 0 1 1069,837.66 L1069,1055.55 A2.5,2.5 0 0 1 1066.5,1058.05 L573.5,1058.05 A2.5,2.5 0 0 1 571,1055.55 L571,827.66 A2.5,2.5 0 0 1 573.5,825.16" fill="none" style="stroke:#000000;stroke-width:1.5;"/><line style="stroke:#000000;stroke-width:1.5;" x1="571" x2="702.5" y1="835.16" y2="835.16"/><text fill="#000000" font-family="sans-serif" font-size="14" font-weight="700" lengthAdjust="spacing" textLength="0" x="575" y="827.16">Jugabilidad (Match)</text></g><!--class Director--><g class="entity" data-qualified-name="Core .Motor..Director" data-source-line="12" id="ent0003"><rect fill="#F1F1F1" height="113.1875" rx="2.5" ry="2.5" style="stroke:#181818;stroke-width:0.5;" width="273.3174" x="399.34" y="53"/><ellipse cx="503.4753" cy="69" fill="#ADD1B2" rx="11" ry="11" style="stroke:#181818;stroke-width:1;"/><path d="M506.444,74.6406 Q505.8659,74.9375 505.2253,75.0781 Q504.5846,75.2344 503.8815,75.2344 Q501.3815,75.2344 500.0534,73.5938 Q498.7409,71.9375 498.7409,68.8125 Q498.7409,65.6875 500.0534,64.0313 Q501.3815,62.375 503.8815,62.375 Q504.5846,62.375 505.2253,62.5313 Q505.8815,62.6875 506.444,62.9844 L506.444,65.7031 Q505.819,65.125 505.2253,64.8594 Q504.6315,64.5781 504.0065,64.5781 Q502.6628,64.5781 501.9753,65.6563 Q501.2878,66.7188 501.2878,68.8125 Q501.2878,70.9063 501.9753,71.9844 Q502.6628,73.0469 504.0065,73.0469 Q504.6315,73.0469 505.2253,72.7813 Q505.819,72.5 506.444,71.9219 L506.444,74.6406 Z " fill="#000000"/><text fill="#000000" font-family="sans-serif" font-size="14" lengthAdjust="spacing" textLength="56.5469" x="523.9753" y="77.1484">Director</text><line style="stroke:#181818;stroke-width:0.5;" x1="400.34" x2="671.6574" y1="85" y2="85"/><text fill="#000000" font-family="sans-serif" font-size="14" lengthAdjust="spacing" textLength="120.0391" x="405.34" y="105.2969">-scene_stack: list</text><line style="stroke:#181818;stroke-width:0.5;" x1="400.34" x2="671.6574" y1="109.2969" y2="109.2969"/><text fill="#000000" font-family="sans-serif" font-size="14" lengthAdjust="spacing" textLength="243.8721" x="405.34" y="129.5938">+apilarEscena(scene: Scene): void</text><text fill="#000000" font-family="sans-serif" font-size="14" lengthAdjust="spacing" textLength="261.3174" x="405.34" y="145.8906">+cambiarEscena(scene: Scene): void</text><text fill="#000000" font-family="sans-serif" font-size="14" lengthAdjust="spacing" textLength="130.4092" x="405.34" y="162.1875">+exitScene(): void</text></g><!--class Scene--><g class="entity" data-qualified-name="Core .Motor..Scene" data-source-line="19" id="ent0004"><rect fill="#F1F1F1" height="113.1875" rx="2.5" ry="2.5" style="stroke:#181818;stroke-width:0.5;" width="229.2939" x="421.35" y="206.19"/><ellipse cx="531.747" cy="222.19" fill="#A9DCDF" rx="11" ry="11" style="stroke:#181818;stroke-width:1;"/><path d="M531.8563,217.5337 L530.7001,222.6119 L533.0282,222.6119 L531.8563,217.5337 Z M530.372,215.2994 L533.3563,215.2994 L536.7157,227.69 L534.2626,227.69 L533.497,224.6275 L530.2157,224.6275 L529.4657,227.69 L527.0282,227.69 L530.372,215.2994 Z " fill="#000000"/><text fill="#000000" font-family="sans-serif" font-size="14" font-style="italic" lengthAdjust="spacing" textLength="0" x="552.247" y="217.19">Scene</text><line style="stroke:#181818;stroke-width:0.5;" x1="422.35" x2="649.6439" y1="238.19" y2="238.19"/><text fill="#000000" font-family="sans-serif" font-size="14" lengthAdjust="spacing" textLength="132.0977" x="427.35" y="258.4869">#director: Director</text><line style="stroke:#181818;stroke-width:0.5;" x1="422.35" x2="649.6439" y1="262.4869" y2="262.4869"/><text fill="#000000" font-family="sans-serif" font-size="14" lengthAdjust="spacing" textLength="165.7715" x="427.35" y="282.7837">+update(dt: float): void</text><text fill="#000000" font-family="sans-serif" font-size="14" lengthAdjust="spacing" textLength="155.2441" x="427.35" y="299.0806">+events(ev: list): void</text><text fill="#000000" font-family="sans-serif" font-size="14" lengthAdjust="spacing" textLength="217.2939" x="427.35" y="315.3775">+render(screen: Surface): void</text></g><!--class PyGameScene--><g class="entity" data-qualified-name="Core .Motor..PyGameScene" data-source-line="26" id="ent0005"><rect fill="#F1F1F1" height="113.1875" rx="2.5" ry="2.5" style="stroke:#181818;stroke-width:0.5;" width="188.5039" x="441.75" y="359.38"/><ellipse cx="481.6863" cy="375.38" fill="#ADD1B2" rx="11" ry="11" style="stroke:#181818;stroke-width:1;"/><path d="M484.6551,381.0206 Q484.077,381.3175 483.4363,381.4581 Q482.7957,381.6144 482.0926,381.6144 Q479.5926,381.6144 478.2645,379.9738 Q476.952,378.3175 476.952,375.1925 Q476.952,372.0675 478.2645,370.4113 Q479.5926,368.755 482.0926,368.755 Q482.7957,368.755 483.4363,368.9113 Q484.0926,369.0675 484.6551,369.3644 L484.6551,372.0831 Q484.0301,371.505 483.4363,371.2394 Q482.8426,370.9581 482.2176,370.9581 Q480.8738,370.9581 480.1863,372.0363 Q479.4988,373.0988 479.4988,375.1925 Q479.4988,377.2863 480.1863,378.3644 Q480.8738,379.4269 482.2176,379.4269 Q482.8426,379.4269 483.4363,379.1613 Q484.0301,378.88 484.6551,378.3019 L484.6551,381.0206 Z " fill="#000000"/><text fill="#000000" font-family="sans-serif" font-size="14" lengthAdjust="spacing" textLength="101.0898" x="501.2277" y="383.5284">PyGameScene</text><line style="stroke:#181818;stroke-width:0.5;" x1="442.75" x2="629.2539" y1="391.38" y2="391.38"/><text fill="#000000" font-family="sans-serif" font-size="14" lengthAdjust="spacing" textLength="140.3486" x="447.75" y="411.6769">-is_overlay: boolean</text><text fill="#000000" font-family="sans-serif" font-size="14" lengthAdjust="spacing" textLength="122.4863" x="447.75" y="427.9738">-fade_alpha: float</text><line style="stroke:#181818;stroke-width:0.5;" x1="442.75" x2="629.2539" y1="431.9738" y2="431.9738"/><text fill="#000000" font-family="sans-serif" font-size="14" lengthAdjust="spacing" textLength="157.6709" x="447.75" y="452.2706">+fade_to_black(): void</text><text fill="#000000" font-family="sans-serif" font-size="14" lengthAdjust="spacing" textLength="176.5039" x="447.75" y="468.5675">+fade_from_black(): void</text></g><!--class Menu--><g class="entity" data-qualified-name="Interfaces.Menu" data-source-line="40" id="ent0010"><rect fill="#F1F1F1" height="64.2969" rx="2.5" ry="2.5" style="stroke:#181818;stroke-width:0.5;" width="118.1006" x="29.95" y="544.57"/><ellipse cx="66.3979" cy="560.57" fill="#ADD1B2" rx="11" ry="11" style="stroke:#181818;stroke-width:1;"/><path d="M69.3667,566.2106 Q68.7886,566.5075 68.1479,566.6481 Q67.5073,566.8044 66.8042,566.8044 Q64.3042,566.8044 62.9761,565.1637 Q61.6636,563.5075 61.6636,560.3825 Q61.6636,557.2575 62.9761,555.6012 Q64.3042,553.945 66.8042,553.945 Q67.5073,553.945 68.1479,554.1012 Q68.8042,554.2575 69.3667,554.5544 L69.3667,557.2731 Q68.7417,556.695 68.1479,556.4294 Q67.5542,556.1481 66.9292,556.1481 Q65.5854,556.1481 64.8979,557.2262 Q64.2104,558.2887 64.2104,560.3825 Q64.2104,562.4762 64.8979,563.5544 Q65.5854,564.6169 66.9292,564.6169 Q67.5542,564.6169 68.1479,564.3512 Q68.7417,564.07 69.3667,563.4919 L69.3667,566.2106 Z " fill="#000000"/><text fill="#000000" font-family="sans-serif" font-size="14" lengthAdjust="spacing" textLength="38.4385" x="85.1642" y="568.7184">Menu</text><line style="stroke:#181818;stroke-width:0.5;" x1="30.95" x2="147.0506" y1="576.57" y2="576.57"/><text fill="#000000" font-family="sans-serif" font-size="14" lengthAdjust="spacing" textLength="106.1006" x="35.95" y="596.8669">-screenList: list</text><line style="stroke:#181818;stroke-width:0.5;" x1="30.95" x2="147.0506" y1="600.8669" y2="600.8669"/></g><!--class SettingsScene--><g class="entity" data-qualified-name="Interfaces.SettingsScene" data-source-line="43" id="ent0011"><rect fill="#F1F1F1" height="48" rx="2.5" ry="2.5" style="stroke:#181818;stroke-width:0.5;" width="132.1055" x="197.95" y="552.71"/><ellipse cx="212.95" cy="568.71" fill="#ADD1B2" rx="11" ry="11" style="stroke:#181818;stroke-width:1;"/><path d="M215.9188,574.3506 Q215.3406,574.6475 214.7,574.7881 Q214.0594,574.9444 213.3563,574.9444 Q210.8563,574.9444 209.5281,573.3037 Q208.2156,571.6475 208.2156,568.5225 Q208.2156,565.3975 209.5281,563.7412 Q210.8563,562.085 213.3563,562.085 Q214.0594,562.085 214.7,562.2412 Q215.3563,562.3975 215.9188,562.6944 L215.9188,565.4131 Q215.2938,564.835 214.7,564.5694 Q214.1063,564.2881 213.4813,564.2881 Q212.1375,564.2881 211.45,565.3662 Q210.7625,566.4287 210.7625,568.5225 Q210.7625,570.6162 211.45,571.6944 Q212.1375,572.7569 213.4813,572.7569 Q214.1063,572.7569 214.7,572.4912 Q215.2938,572.21 215.9188,571.6319 L215.9188,574.3506 Z " fill="#000000"/><text fill="#000000" font-family="sans-serif" font-size="14" lengthAdjust="spacing" textLength="100.1055" x="226.95" y="576.8584">SettingsScene</text><line style="stroke:#181818;stroke-width:0.5;" x1="198.95" x2="329.0555" y1="584.71" y2="584.71"/><line style="stroke:#181818;stroke-width:0.5;" x1="198.95" x2="329.0555" y1="592.71" y2="592.71"/></g><!--class IngameMenu--><g class="entity" data-qualified-name="Interfaces.IngameMenu" data-source-line="44" id="ent0012"><rect fill="#F1F1F1" height="48" rx="2.5" ry="2.5" style="stroke:#181818;stroke-width:0.5;" width="123.1572" x="380.42" y="552.71"/><ellipse cx="395.42" cy="568.71" fill="#ADD1B2" rx="11" ry="11" style="stroke:#181818;stroke-width:1;"/><path d="M398.3888,574.3506 Q397.8106,574.6475 397.17,574.7881 Q396.5294,574.9444 395.8263,574.9444 Q393.3263,574.9444 391.9981,573.3037 Q390.6856,571.6475 390.6856,568.5225 Q390.6856,565.3975 391.9981,563.7412 Q393.3263,562.085 395.8263,562.085 Q396.5294,562.085 397.17,562.2412 Q397.8263,562.3975 398.3888,562.6944 L398.3888,565.4131 Q397.7638,564.835 397.17,564.5694 Q396.5763,564.2881 395.9513,564.2881 Q394.6075,564.2881 393.92,565.3662 Q393.2325,566.4287 393.2325,568.5225 Q393.2325,570.6162 393.92,571.6944 Q394.6075,572.7569 395.9513,572.7569 Q396.5763,572.7569 397.17,572.4912 Q397.7638,572.21 398.3888,571.6319 L398.3888,574.3506 Z " fill="#000000"/><text fill="#000000" font-family="sans-serif" font-size="14" lengthAdjust="spacing" textLength="91.1572" x="409.42" y="576.8584">IngameMenu</text><line style="stroke:#181818;stroke-width:0.5;" x1="381.42" x2="502.5772" y1="584.71" y2="584.71"/><line style="stroke:#181818;stroke-width:0.5;" x1="381.42" x2="502.5772" y1="592.71" y2="592.71"/></g><!--class DialogueScene--><g class="entity" data-qualified-name="Narrativa.DialogueScene" data-source-line="53" id="ent0017"><rect fill="#F1F1F1" height="64.2969" rx="2.5" ry="2.5" style="stroke:#181818;stroke-width:0.5;" width="212.5869" x="494.71" y="696.86"/><ellipse cx="544.3731" cy="712.86" fill="#ADD1B2" rx="11" ry="11" style="stroke:#181818;stroke-width:1;"/><path d="M547.3418,718.5006 Q546.7637,718.7975 546.1231,718.9381 Q545.4825,719.0944 544.7793,719.0944 Q542.2793,719.0944 540.9512,717.4537 Q539.6387,715.7975 539.6387,712.6725 Q539.6387,709.5475 540.9512,707.8912 Q542.2793,706.235 544.7793,706.235 Q545.4825,706.235 546.1231,706.3912 Q546.7793,706.5475 547.3418,706.8444 L547.3418,709.5631 Q546.7168,708.985 546.1231,708.7194 Q545.5293,708.4381 544.9043,708.4381 Q543.5606,708.4381 542.8731,709.5162 Q542.1856,710.5787 542.1856,712.6725 Q542.1856,714.7662 542.8731,715.8444 Q543.5606,716.9069 544.9043,716.9069 Q545.5293,716.9069 546.1231,716.6412 Q546.7168,716.36 547.3418,715.7819 L547.3418,718.5006 Z " fill="#000000"/><text fill="#000000" font-family="sans-serif" font-size="14" lengthAdjust="spacing" textLength="104.7607" x="564.8731" y="721.0084">DialogueScene</text><line style="stroke:#181818;stroke-width:0.5;" x1="495.71" x2="706.2969" y1="728.86" y2="728.86"/><text fill="#000000" font-family="sans-serif" font-size="14" lengthAdjust="spacing" textLength="200.5869" x="500.71" y="749.1569">-manager: DialogueManager</text><line style="stroke:#181818;stroke-width:0.5;" x1="495.71" x2="706.2969" y1="753.1569" y2="753.1569"/></g><!--class CreditsScene--><g class="entity" data-qualified-name="Narrativa.CreditsScene" data-source-line="56" id="ent0018"><rect fill="#F1F1F1" height="48" rx="2.5" ry="2.5" style="stroke:#181818;stroke-width:0.5;" width="124.3877" x="756.81" y="705.01"/><ellipse cx="771.81" cy="721.01" fill="#ADD1B2" rx="11" ry="11" style="stroke:#181818;stroke-width:1;"/><path d="M774.7788,726.6506 Q774.2006,726.9475 773.56,727.0881 Q772.9194,727.2444 772.2163,727.2444 Q769.7163,727.2444 768.3881,725.6038 Q767.0756,723.9475 767.0756,720.8225 Q767.0756,717.6975 768.3881,716.0413 Q769.7163,714.385 772.2163,714.385 Q772.9194,714.385 773.56,714.5413 Q774.2163,714.6975 774.7788,714.9944 L774.7788,717.7131 Q774.1538,717.135 773.56,716.8694 Q772.9663,716.5881 772.3413,716.5881 Q770.9975,716.5881 770.31,717.6663 Q769.6225,718.7288 769.6225,720.8225 Q769.6225,722.9163 770.31,723.9944 Q770.9975,725.0569 772.3413,725.0569 Q772.9663,725.0569 773.56,724.7913 Q774.1538,724.51 774.7788,723.9319 L774.7788,726.6506 Z " fill="#000000"/><text fill="#000000" font-family="sans-serif" font-size="14" lengthAdjust="spacing" textLength="92.3877" x="785.81" y="729.1584">CreditsScene</text><line style="stroke:#181818;stroke-width:0.5;" x1="757.81" x2="880.1977" y1="737.01" y2="737.01"/><line style="stroke:#181818;stroke-width:0.5;" x1="757.81" x2="880.1977" y1="745.01" y2="745.01"/></g><!--class MatchScene--><g class="entity" data-qualified-name="Jugabilidad .Match..MatchScene" data-source-line="65" id="ent0023"><rect fill="#F1F1F1" height="96.8906" rx="2.5" ry="2.5" style="stroke:#181818;stroke-width:0.5;" width="258.1006" x="739.95" y="849.16"/><ellipse cx="822.0496" cy="865.16" fill="#ADD1B2" rx="11" ry="11" style="stroke:#181818;stroke-width:1;"/><path d="M825.0184,870.8006 Q824.4402,871.0975 823.7996,871.2381 Q823.159,871.3944 822.4559,871.3944 Q819.9559,871.3944 818.6277,869.7538 Q817.3152,868.0975 817.3152,864.9725 Q817.3152,861.8475 818.6277,860.1913 Q819.9559,858.535 822.4559,858.535 Q823.159,858.535 823.7996,858.6913 Q824.4559,858.8475 825.0184,859.1444 L825.0184,861.8631 Q824.3934,861.285 823.7996,861.0194 Q823.2059,860.7381 822.5809,860.7381 Q821.2371,860.7381 820.5496,861.8163 Q819.8621,862.8788 819.8621,864.9725 Q819.8621,867.0663 820.5496,868.1444 Q821.2371,869.2069 822.5809,869.2069 Q823.2059,869.2069 823.7996,868.9413 Q824.3934,868.66 825.0184,868.0819 L825.0184,870.8006 Z " fill="#000000"/><text fill="#000000" font-family="sans-serif" font-size="14" lengthAdjust="spacing" textLength="85.4014" x="842.5496" y="873.3084">MatchScene</text><line style="stroke:#181818;stroke-width:0.5;" x1="740.95" x2="997.0506" y1="881.16" y2="881.16"/><text fill="#000000" font-family="sans-serif" font-size="14" lengthAdjust="spacing" textLength="106.9961" x="745.95" y="901.4569">#score_left: int</text><text fill="#000000" font-family="sans-serif" font-size="14" lengthAdjust="spacing" textLength="116.9697" x="745.95" y="917.7538">#score_right: int</text><line style="stroke:#181818;stroke-width:0.5;" x1="740.95" x2="997.0506" y1="921.7538" y2="921.7538"/><text fill="#000000" font-family="sans-serif" font-size="14" lengthAdjust="spacing" textLength="246.1006" x="745.95" y="942.0506">+_draw_hud(screen: Surface): void</text></g><!--class FirstScene--><g class="entity" data-qualified-name="Jugabilidad .Match..FirstScene" data-source-line="71" id="ent0024"><rect fill="#F1F1F1" height="48" rx="2.5" ry="2.5" style="stroke:#181818;stroke-width:0.5;" width="105.165" x="603.42" y="986.05"/><ellipse cx="618.42" cy="1002.05" fill="#ADD1B2" rx="11" ry="11" style="stroke:#181818;stroke-width:1;"/><path d="M621.3888,1007.6906 Q620.8106,1007.9875 620.17,1008.1281 Q619.5294,1008.2844 618.8263,1008.2844 Q616.3263,1008.2844 614.9981,1006.6438 Q613.6856,1004.9875 613.6856,1001.8625 Q613.6856,998.7375 614.9981,997.0813 Q616.3263,995.425 618.8263,995.425 Q619.5294,995.425 620.17,995.5813 Q620.8263,995.7375 621.3888,996.0344 L621.3888,998.7531 Q620.7638,998.175 620.17,997.9094 Q619.5763,997.6281 618.9513,997.6281 Q617.6075,997.6281 616.92,998.7063 Q616.2325,999.7688 616.2325,1001.8625 Q616.2325,1003.9563 616.92,1005.0344 Q617.6075,1006.0969 618.9513,1006.0969 Q619.5763,1006.0969 620.17,1005.8313 Q620.7638,1005.55 621.3888,1004.9719 L621.3888,1007.6906 Z " fill="#000000"/><text fill="#000000" font-family="sans-serif" font-size="14" lengthAdjust="spacing" textLength="73.165" x="632.42" y="1010.1984">FirstScene</text><line style="stroke:#181818;stroke-width:0.5;" x1="604.42" x2="707.585" y1="1018.05" y2="1018.05"/><line style="stroke:#181818;stroke-width:0.5;" x1="604.42" x2="707.585" y1="1026.05" y2="1026.05"/></g><!--class SecondScene--><g class="entity" data-qualified-name="Jugabilidad .Match..SecondScene" data-source-line="72" id="ent0025"><rect fill="#F1F1F1" height="48" rx="2.5" ry="2.5" style="stroke:#181818;stroke-width:0.5;" width="126.2061" x="758.9" y="986.05"/><ellipse cx="773.9" cy="1002.05" fill="#ADD1B2" rx="11" ry="11" style="stroke:#181818;stroke-width:1;"/><path d="M776.8688,1007.6906 Q776.2906,1007.9875 775.65,1008.1281 Q775.0094,1008.2844 774.3063,1008.2844 Q771.8063,1008.2844 770.4781,1006.6438 Q769.1656,1004.9875 769.1656,1001.8625 Q769.1656,998.7375 770.4781,997.0813 Q771.8063,995.425 774.3063,995.425 Q775.0094,995.425 775.65,995.5813 Q776.3063,995.7375 776.8688,996.0344 L776.8688,998.7531 Q776.2438,998.175 775.65,997.9094 Q775.0563,997.6281 774.4313,997.6281 Q773.0875,997.6281 772.4,998.7063 Q771.7125,999.7688 771.7125,1001.8625 Q771.7125,1003.9563 772.4,1005.0344 Q773.0875,1006.0969 774.4313,1006.0969 Q775.0563,1006.0969 775.65,1005.8313 Q776.2438,1005.55 776.8688,1004.9719 L776.8688,1007.6906 Z " fill="#000000"/><text fill="#000000" font-family="sans-serif" font-size="14" lengthAdjust="spacing" textLength="94.2061" x="787.9" y="1010.1984">SecondScene</text><line style="stroke:#181818;stroke-width:0.5;" x1="759.9" x2="884.1061" y1="1018.05" y2="1018.05"/><line style="stroke:#181818;stroke-width:0.5;" x1="759.9" x2="884.1061" y1="1026.05" y2="1026.05"/></g><!--class ThirdScene--><g class="entity" data-qualified-name="Jugabilidad .Match..ThirdScene" data-source-line="73" id="ent0026"><rect fill="#F1F1F1" height="48" rx="2.5" ry="2.5" style="stroke:#181818;stroke-width:0.5;" width="110.6406" x="934.68" y="986.05"/><ellipse cx="949.68" cy="1002.05" fill="#ADD1B2" rx="11" ry="11" style="stroke:#181818;stroke-width:1;"/><path d="M952.6488,1007.6906 Q952.0706,1007.9875 951.43,1008.1281 Q950.7894,1008.2844 950.0863,1008.2844 Q947.5863,1008.2844 946.2581,1006.6438 Q944.9456,1004.9875 944.9456,1001.8625 Q944.9456,998.7375 946.2581,997.0813 Q947.5863,995.425 950.0863,995.425 Q950.7894,995.425 951.43,995.5813 Q952.0863,995.7375 952.6488,996.0344 L952.6488,998.7531 Q952.0238,998.175 951.43,997.9094 Q950.8363,997.6281 950.2113,997.6281 Q948.8675,997.6281 948.18,998.7063 Q947.4925,999.7688 947.4925,1001.8625 Q947.4925,1003.9563 948.18,1005.0344 Q948.8675,1006.0969 950.2113,1006.0969 Q950.8363,1006.0969 951.43,1005.8313 Q952.0238,1005.55 952.6488,1004.9719 L952.6488,1007.6906 Z " fill="#000000"/><text fill="#000000" font-family="sans-serif" font-size="14" lengthAdjust="spacing" textLength="78.6406" x="963.68" y="1010.1984">ThirdScene</text><line style="stroke:#181818;stroke-width:0.5;" x1="935.68" x2="1044.3206" y1="1018.05" y2="1018.05"/><line style="stroke:#181818;stroke-width:0.5;" x1="935.68" x2="1044.3206" y1="1026.05" y2="1026.05"/></g><!--reverse link Director to Scene--><g class="link" data-entity-1="ent0003" data-entity-2="ent0004" data-link-type="composition" data-source-line="35" id="lnk6"><path codeLine="35" d="M497.78,178.64 C497.78,191.4 497.78,192.93 497.78,205.7" fill="none" id="Director-backto-Scene" style="stroke:#181818;stroke-width:1;"/><polygon fill="#181818" points="497.78,166.64,493.78,172.64,497.78,178.64,501.78,172.64,497.78,166.64" style="stroke:#181818;stroke-width:1;"/><text fill="#000000" font-family="sans-serif" font-size="13" lengthAdjust="spacing" textLength="0" x="498.78" y="175.17">Gestiona</text><text fill="#000000" font-family="sans-serif" font-size="13" lengthAdjust="spacing" textLength="8.271" x="484.9141" y="189.2437">1</text><text fill="#000000" font-family="sans-serif" font-size="13" lengthAdjust="spacing" textLength="23.0356" x="469.0335" y="198.373">0..*</text></g><!--reverse link Scene to Director--><g class="link" data-entity-1="ent0004" data-entity-2="ent0003" data-link-type="aggregation" data-source-line="36" id="lnk7"><path codeLine="36" d="M574.22,193.74 C574.22,180.98 574.22,179.45 574.22,166.69" fill="none" id="Scene-backto-Director" style="stroke:#181818;stroke-width:1;"/><polygon fill="none" points="574.22,205.74,578.22,199.74,574.22,193.74,570.22,199.74,574.22,205.74" style="stroke:#181818;stroke-width:1;"/><text fill="#000000" font-family="sans-serif" font-size="13" lengthAdjust="spacing" textLength="0" x="575.22" y="175.21">Referencia</text><text fill="#000000" font-family="sans-serif" font-size="13" lengthAdjust="spacing" textLength="23.0356" x="554.479" y="198.0146">0..*</text><text fill="#000000" font-family="sans-serif" font-size="13" lengthAdjust="spacing" textLength="8.271" x="570.1925" y="189.2994">1</text></g><!--reverse link Scene to PyGameScene--><g class="link" data-entity-1="ent0004" data-entity-2="ent0005" data-link-type="extension" data-source-line="37" id="lnk8"><path codeLine="37" d="M536,337.83 C536,350.59 536,346.12 536,358.88" fill="none" id="Scene-backto-PyGameScene" style="stroke:#181818;stroke-width:1;"/><polygon fill="none" points="536,319.83,530,337.83,542,337.83,536,319.83" style="stroke:#181818;stroke-width:1;"/></g><!--reverse link PyGameScene to Menu--><g class="link" data-entity-1="ent0005" data-entity-2="ent0010" data-link-type="extension" data-source-line="48" id="lnk13"><path codeLine="48" d="M462.36,490.79 C462.36,526.97 462.36,549.05 462.36,549.05 C462.36,549.05 253.44,549.05 148.16,549.05" fill="none" id="PyGameScene-backto-Menu" style="stroke:#181818;stroke-width:1;"/><polygon fill="none" points="462.36,472.79,456.36,490.79,468.36,490.79,462.36,472.79" style="stroke:#181818;stroke-width:1;"/></g><!--reverse link PyGameScene to SettingsScene--><g class="link" data-entity-1="ent0005" data-entity-2="ent0011" data-link-type="extension" data-source-line="49" id="lnk14"><path codeLine="49" d="M423.25,416.05 C344.75,416.05 264,416.05 264,416.05 C264,416.05 264,507.37 264,552.31" fill="none" id="PyGameScene-backto-SettingsScene" style="stroke:#181818;stroke-width:1;"/><polygon fill="none" points="441.25,416.05,423.25,410.05,423.25,422.05,441.25,416.05" style="stroke:#181818;stroke-width:1;"/></g><!--reverse link PyGameScene to IngameMenu--><g class="link" data-entity-1="ent0005" data-entity-2="ent0012" data-link-type="extension" data-source-line="50" id="lnk15"><path codeLine="50" d="M482.97,490.64 C482.97,517.94 482.97,531.24 482.97,552.33" fill="none" id="PyGameScene-backto-IngameMenu" style="stroke:#181818;stroke-width:1;"/><polygon fill="none" points="482.97,472.64,476.97,490.64,488.97,490.64,482.97,472.64" style="stroke:#181818;stroke-width:1;"/></g><!--link Interfaces to Narrativa--><!--reverse link PyGameScene to DialogueScene--><g class="link" data-entity-1="ent0005" data-entity-2="ent0017" data-link-type="extension" data-source-line="61" id="lnk20"><path codeLine="61" d="M528.29,491.02 C528.29,556.63 528.29,644.03 528.29,696.77" fill="none" id="PyGameScene-backto-DialogueScene" style="stroke:#181818;stroke-width:1;"/><polygon fill="none" points="528.29,473.02,522.29,491.02,534.29,491.02,528.29,473.02" style="stroke:#181818;stroke-width:1;"/></g><!--reverse link PyGameScene to CreditsScene--><g class="link" data-entity-1="ent0005" data-entity-2="ent0018" data-link-type="extension" data-source-line="62" id="lnk21"><path codeLine="62" d="M648.63,398.05 C730.9,398.05 819,398.05 819,398.05 C819,398.05 819,628.24 819,704.67" fill="none" id="PyGameScene-backto-CreditsScene" style="stroke:#181818;stroke-width:1;"/><polygon fill="none" points="630.63,398.05,648.63,404.05,648.63,392.05,630.63,398.05" style="stroke:#181818;stroke-width:1;"/></g><!--link Narrativa to Jugabilidad (Match)--><!--reverse link PyGameScene to MatchScene--><g class="link" data-entity-1="ent0005" data-entity-2="ent0023" data-link-type="extension" data-source-line="78" id="lnk28"><path codeLine="78" d="M648.7,435.05 C705.33,435.05 748.38,435.05 748.38,435.05 C748.38,435.05 748.38,730.22 748.38,848.98" fill="none" id="PyGameScene-backto-MatchScene" style="stroke:#181818;stroke-width:1;"/><polygon fill="none" points="630.7,435.05,648.7,441.05,648.7,429.05,630.7,435.05" style="stroke:#181818;stroke-width:1;"/></g><!--reverse link MatchScene to FirstScene--><g class="link" data-entity-1="ent0023" data-entity-2="ent0024" data-link-type="extension" data-source-line="79" id="lnk29"><path codeLine="79" d="M749.42,964.27 C749.42,994.66 749.42,1010.05 749.42,1010.05 C749.42,1010.05 730.08,1010.05 708.99,1010.05" fill="none" id="MatchScene-backto-FirstScene" style="stroke:#181818;stroke-width:1;"/><polygon fill="none" points="749.42,946.27,743.42,964.27,755.42,964.27,749.42,946.27" style="stroke:#181818;stroke-width:1;"/></g><!--reverse link MatchScene to SecondScene--><g class="link" data-entity-1="ent0023" data-entity-2="ent0025" data-link-type="extension" data-source-line="80" id="lnk30"><path codeLine="80" d="M822,964.27 C822,977.92 822,974.18 822,985.74" fill="none" id="MatchScene-backto-SecondScene" style="stroke:#181818;stroke-width:1;"/><polygon fill="none" points="822,946.27,816,964.27,828,964.27,822,946.27" style="stroke:#181818;stroke-width:1;"/></g><!--reverse link MatchScene to ThirdScene--><g class="link" data-entity-1="ent0023" data-entity-2="ent0026" data-link-type="extension" data-source-line="81" id="lnk31"><path codeLine="81" d="M966.36,964.27 C966.36,977.92 966.36,974.18 966.36,985.74" fill="none" id="MatchScene-backto-ThirdScene" style="stroke:#181818;stroke-width:1;"/><polygon fill="none" points="966.36,946.27,960.36,964.27,972.36,964.27,966.36,946.27" style="stroke:#181818;stroke-width:1;"/></g><?plantuml-src ZLN1Jjj04BtxAqRfWG0Aeb9xiNf19D0W0eYKGrLLqSGxiLUiTytkEXHQFgcdVW8_rh4TaesT0xbOclTcvytRsSaUd1dxZBbna1jXG4XCBUO8WY1HwCX5xbxg0Za8BaDX7gLEOO7AKO3aHfiaioQd3bITuawyjt9UUXedHa_bCy5nG55Iatyg28prcGa0RGGvAk1poBQexwlWf-Ceyj8hWhl9PQLN8LoGHVjGllwj6nYvX3GwYA82atjC2NgdnXBq9yORkz-3tn7mhrO8GsafuV0gMFq6K1r0C-SvFMQPpg-nGy12AhHDZNvDZ65QVVPZM1ef0cg2-Lo-aqk_fA-XVeYzHFK7vyvRJFnASyqB17_W-skwYDVz14UNXK1FVU5ZM2Y3VaVn9Mdl-hHikkqIB6b1bbkmH9fxAEq24zgXj15uytIEERLb3a2wcLcILVWKmzmOHQW3T862PgYA35T20m4rvirihlXE-bs1DRxWITp1U8bOt1uC1WEu7LsUd8wlhqPJ68xWvlRwPZmQdWpXEznDhoj6j9w7tiSU771Ax_ZewA2tyZo6St9U6erH4rYXfY9omZexXbjQ4DkMo3VgbpzC2fm9ndEiFTMEkktXd90kMuDPNS0btr4mboz1nfIyvvVgcWgR-5YdNBSwhp7ZwqgR0oVpGl5x3--ibbgJEz7j0XqugBDfxmgjHI-Ns7vwg4nQxfYJ73KdrjFSK2PDeDFkgIKX_KfCtTYKgdMHoDT_6dZKl4nGGHM2Xv9uiu0ZuBsdlU6CZUym-9598KZ_v5Md1x2Mt6rnItONtfAqyU2YJ74kbHGeU16XJxBM8gfZtPVj4bvTCqKBld6fVGUnCirQq27CXCN7MLQATx_OCscTRm_Db7XjYtRqMoQj21n_6wLgzJfAIyt_9rekIKLh4zlkxdHZnmIkBOa2TseeqDk6GjLjRAFzFm00?></g></svg>