<svg xmlns="http://www.w3.org/2000/svg" xmlns:xlink="http://www.w3.org/1999/xlink" contentStyleType="text/css" data-diagram-type="DESCRIPTION" height="792px" preserveAspectRatio="none" style="width:727px;height:792px;background:#FFFFFF;" version="1.1" viewBox="0 0 727 792" width="727px" zoomAndPan="magnify"><?plantuml 1.2026.3beta4?><defs/><g><g class="title" data-source-line="8"><text fill="#000000" font-family="sans-serif" font-size="14" font-weight="700" lengthAdjust="spacing" textLength="434.1846" x="143.2829" y="22.9951">Figura 10: Diagrama de Componentes UML a Alto Nivel</text></g><!--entity Core--><g class="entity" data-qualified-name="Core" data-source-line="10" id="ent0002"><rect fill="#F1F1F1" height="62.5938" rx="2.5" ry="2.5" style="stroke:#181818;stroke-width:0.5;" width="163.9395" x="304.69" y="44.2969"/><rect fill="#F1F1F1" height="10" style="stroke:#181818;stroke-width:0.5;" width="15" x="448.6295" y="49.2969"/><rect fill="#F1F1F1" height="2" style="stroke:#181818;stroke-width:0.5;" width="4" x="446.6295" y="51.2969"/><rect fill="#F1F1F1" height="2" style="stroke:#181818;stroke-width:0.5;" width="4" x="446.6295" y="55.2969"/><text fill="#000000" font-family="sans-serif" font-size="14" font-style="italic" lengthAdjust="spacing" textLength="121.9395" x="320.69" y="77.292">&#171;Motor Principal&#187;</text><text fill="#000000" font-family="sans-serif" font-size="14" lengthAdjust="spacing" textLength="32.71" x="365.3047" y="93.5889">Core</text></g><!--entity Scenes--><g class="entity" data-qualified-name="Scenes" data-source-line="11" id="ent0003"><rect fill="#F1F1F1" height="62.5938" rx="2.5" ry="2.5" style="stroke:#181818;stroke-width:0.5;" width="187.0518" x="49.13" y="378.8869"/><rect fill="#F1F1F1" height="10" style="stroke:#181818;stroke-width:0.5;" width="15" x="216.1818" y="383.8869"/><rect fill="#F1F1F1" height="2" style="stroke:#181818;stroke-width:0.5;" width="4" x="214.1818" y="385.8869"/><rect fill="#F1F1F1" height="2" style="stroke:#181818;stroke-width:0.5;" width="4" x="214.1818" y="389.8869"/><text fill="#000000" font-family="sans-serif" font-size="14" font-style="italic" lengthAdjust="spacing" textLength="145.0518" x="65.13" y="411.882">&#171;Gestor de Estados&#187;</text><text fill="#000000" font-family="sans-serif" font-size="14" lengthAdjust="spacing" textLength="49.9775" x="112.6671" y="428.1789">Scenes</text></g><!--entity Entities--><g class="entity" data-qualified-name="Entities" data-source-line="12" id="ent0004"><rect fill="#F1F1F1" height="62.5938" rx="2.5" ry="2.5" style="stroke:#181818;stroke-width:0.5;" width="156.4199" x="26.45" y="713.4869"/><rect fill="#F1F1F1" height="10" style="stroke:#181818;stroke-width:0.5;" width="15" x="162.8699" y="718.4869"/><rect fill="#F1F1F1" height="2" style="stroke:#181818;stroke-width:0.5;" width="4" x="160.8699" y="720.4869"/><rect fill="#F1F1F1" height="2" style="stroke:#181818;stroke-width:0.5;" width="4" x="160.8699" y="724.4869"/><text fill="#000000" font-family="sans-serif" font-size="14" font-style="italic" lengthAdjust="spacing" textLength="114.4199" x="42.45" y="746.482">&#171;F&#237;sicas Box2D&#187;</text><text fill="#000000" font-family="sans-serif" font-size="14" lengthAdjust="spacing" textLength="52.3838" x="73.4681" y="762.7789">Entities</text></g><!--entity GUI--><g class="entity" data-qualified-name="GUI" data-source-line="13" id="ent0005"><rect fill="#F1F1F1" height="62.5938" rx="2.5" ry="2.5" style="stroke:#181818;stroke-width:0.5;" width="192.4521" x="316.43" y="378.8869"/><rect fill="#F1F1F1" height="10" style="stroke:#181818;stroke-width:0.5;" width="15" x="488.8821" y="383.8869"/><rect fill="#F1F1F1" height="2" style="stroke:#181818;stroke-width:0.5;" width="4" x="486.8821" y="385.8869"/><rect fill="#F1F1F1" height="2" style="stroke:#181818;stroke-width:0.5;" width="4" x="486.8821" y="389.8869"/><text fill="#000000" font-family="sans-serif" font-size="14" font-style="italic" lengthAdjust="spacing" textLength="150.4521" x="332.43" y="411.882">&#171;Interfaz de Usuario&#187;</text><text fill="#000000" font-family="sans-serif" font-size="14" lengthAdjust="spacing" textLength="25.2246" x="395.0438" y="428.1789">GUI</text></g><!--entity Managers--><g class="entity" data-qualified-name="Managers" data-source-line="14" id="ent0006"><rect fill="#F1F1F1" height="62.5938" rx="2.5" ry="2.5" style="stroke:#181818;stroke-width:0.5;" width="187.0244" x="270.15" y="713.4869"/><rect fill="#F1F1F1" height="10" style="stroke:#181818;stroke-width:0.5;" width="15" x="437.1744" y="718.4869"/><rect fill="#F1F1F1" height="2" style="stroke:#181818;stroke-width:0.5;" width="4" x="435.1744" y="720.4869"/><rect fill="#F1F1F1" height="2" style="stroke:#181818;stroke-width:0.5;" width="4" x="435.1744" y="724.4869"/><text fill="#000000" font-family="sans-serif" font-size="14" font-style="italic" lengthAdjust="spacing" textLength="145.0244" x="286.15" y="746.482">&#171;Servicios Globales&#187;</text><text fill="#000000" font-family="sans-serif" font-size="14" lengthAdjust="spacing" textLength="68.6602" x="324.3321" y="762.7789">Managers</text></g><!--entity Utils--><g class="entity" data-qualified-name="Utils" data-source-line="15" id="ent0007"><rect fill="#F1F1F1" height="62.5938" rx="2.5" ry="2.5" style="stroke:#181818;stroke-width:0.5;" width="172.1904" x="541.56" y="713.4869"/><rect fill="#F1F1F1" height="10" style="stroke:#181818;stroke-width:0.5;" width="15" x="693.7504" y="718.4869"/><rect fill="#F1F1F1" height="2" style="stroke:#181818;stroke-width:0.5;" width="4" x="691.7504" y="720.4869"/><rect fill="#F1F1F1" height="2" style="stroke:#181818;stroke-width:0.5;" width="4" x="691.7504" y="724.4869"/><text fill="#000000" font-family="sans-serif" font-size="14" font-style="italic" lengthAdjust="spacing" textLength="130.1904" x="557.56" y="746.482">&#171;Configuraciones&#187;</text><text fill="#000000" font-family="sans-serif" font-size="14" lengthAdjust="spacing" textLength="30.8096" x="607.2504" y="762.7789">Utils</text></g><!--link Core to Scenes--><g class="link" data-entity-1="ent0002" data-entity-2="ent0003" data-link-type="dependency" data-source-line="18" id="lnk8"><path d="M310.56,107.0969 C310.56,187.6969 310.56,395.0769 310.56,395.0769 C310.56,395.0769 280.89,395.0769 242.43,395.0769" fill="none" id="Core-to-Scenes" style="stroke:#181818;stroke-width:1;stroke-dasharray:7,7;"/><polygon fill="#181818" points="236.43,395.0769,245.43,399.0769,241.43,395.0769,245.43,391.0769,236.43,395.0769" style="stroke:#181818;stroke-width:1;"/><text fill="#000000" font-family="sans-serif" font-size="13" lengthAdjust="spacing" textLength="38.9175" x="232.9633" y="269.2238">&#171;use&#187;</text><text fill="#000000" font-family="sans-serif" font-size="13" lengthAdjust="spacing" textLength="115.7241" x="194.56" y="284.3566">[Gestiona el flujo]</text></g><!--link Core to Utils--><g class="link" data-entity-1="ent0002" data-entity-2="ent0007" data-link-type="dependency" data-source-line="19" id="lnk9"><path d="M468.92,76.0769 C538.74,76.0769 627.66,76.0769 627.66,76.0769 C627.66,76.0769 627.66,575.2169 627.66,707.4269" fill="none" id="Core-to-Utils" style="stroke:#181818;stroke-width:1;stroke-dasharray:7,7;"/><polygon fill="#181818" points="627.66,713.4269,631.66,704.4269,627.66,708.4269,623.66,704.4269,627.66,713.4269" style="stroke:#181818;stroke-width:1;"/><text fill="#000000" font-family="sans-serif" font-size="13" lengthAdjust="spacing" textLength="38.9175" x="563.4349" y="296.4538">&#171;use&#187;</text><text fill="#000000" font-family="sans-serif" font-size="13" lengthAdjust="spacing" textLength="88.4673" x="538.66" y="311.5866">[Inicia config]</text></g><!--link Scenes to Entities--><g class="link" data-entity-1="ent0003" data-entity-2="ent0004" data-link-type="dependency" data-source-line="21" id="lnk10"><path d="M116,441.9669 C116,505.9069 116,643.4469 116,707.2169" fill="none" id="Scenes-to-Entities" style="stroke:#181818;stroke-width:1;stroke-dasharray:7,7;"/><polygon fill="#181818" points="116,713.2169,120,704.2169,116,708.2169,112,704.2169,116,713.2169" style="stroke:#181818;stroke-width:1;"/><text fill="#000000" font-family="sans-serif" font-size="13" lengthAdjust="spacing" textLength="38.9175" x="41.5439" y="558.6538">&#171;use&#187;</text><text fill="#000000" font-family="sans-serif" font-size="13" lengthAdjust="spacing" textLength="108.0054" x="7" y="573.7866">[F&#237;sicas y l&#243;gica]</text></g><!--link Scenes to GUI--><g class="link" data-entity-1="ent0003" data-entity-2="ent0005" data-link-type="dependency" data-source-line="22" id="lnk11"><path d="M236.33,411.0769 C262.07,411.0769 284.03,411.0769 309.94,411.0769" fill="none" id="Scenes-to-GUI" style="stroke:#181818;stroke-width:1;stroke-dasharray:7,7;"/><polygon fill="#181818" points="315.94,411.0769,306.94,407.0769,310.94,411.0769,306.94,415.0769,315.94,411.0769" style="stroke:#181818;stroke-width:1;"/><text fill="#000000" font-family="sans-serif" font-size="13" lengthAdjust="spacing" textLength="38.9175" x="257.0931" y="424.1438">&#171;use&#187;</text><text fill="#000000" font-family="sans-serif" font-size="13" lengthAdjust="spacing" textLength="110.8237" x="221.14" y="439.2766">[Muestra men&#250;s]</text></g><!--link Scenes to Managers--><g class="link" data-entity-1="ent0003" data-entity-2="ent0006" data-link-type="dependency" data-source-line="23" id="lnk12"><path d="M236.38,426.0769 C264.21,426.0769 287.42,426.0769 287.42,426.0769 C287.42,426.0769 287.42,626.4469 287.42,707.0569" fill="none" id="Scenes-to-Managers" style="stroke:#181818;stroke-width:1;stroke-dasharray:7,7;"/><polygon fill="#181818" points="287.42,713.0569,291.42,704.0569,287.42,708.0569,283.42,704.0569,287.42,713.0569" style="stroke:#181818;stroke-width:1;"/><text fill="#000000" font-family="sans-serif" font-size="13" lengthAdjust="spacing" textLength="38.9175" x="204.3426" y="525.1138">&#171;use&#187;</text><text fill="#000000" font-family="sans-serif" font-size="13" lengthAdjust="spacing" textLength="126.7627" x="160.42" y="540.2466">[Pide Audio/Textos]</text></g><!--link GUI to Managers--><g class="link" data-entity-1="ent0005" data-entity-2="ent0006" data-link-type="dependency" data-source-line="25" id="lnk13"><path d="M386.8,441.9669 C386.8,505.9069 386.8,643.4469 386.8,707.2169" fill="none" id="GUI-to-Managers" style="stroke:#181818;stroke-width:1;stroke-dasharray:7,7;"/><polygon fill="#181818" points="386.8,713.2169,390.8,704.2169,386.8,708.2169,382.8,704.2169,386.8,713.2169" style="stroke:#181818;stroke-width:1;"/><text fill="#000000" font-family="sans-serif" font-size="13" lengthAdjust="spacing" textLength="38.9175" x="310.9689" y="558.6538">&#171;use&#187;</text><text fill="#000000" font-family="sans-serif" font-size="13" lengthAdjust="spacing" textLength="111.2554" x="274.8" y="573.7866">[Ajusta volumen]</text></g><!--link Entities to Managers--><g class="link" data-entity-1="ent0004" data-entity-2="ent0006" data-link-type="dependency" data-source-line="26" id="lnk14"><path d="M183.07,745.0769 C210.46,745.0769 235.49,745.0769 264,745.0769" fill="none" id="Entities-to-Managers" style="stroke:#181818;stroke-width:1;stroke-dasharray:7,7;"/><polygon fill="#181818" points="270,745.0769,261,741.0769,265,745.0769,261,749.0769,270,745.0769" style="stroke:#181818;stroke-width:1;"/><text fill="#000000" font-family="sans-serif" font-size="13" lengthAdjust="spacing" textLength="38.9175" x="207.1867" y="758.1438">&#171;use&#187;</text><text fill="#000000" font-family="sans-serif" font-size="13" lengthAdjust="spacing" textLength="98.2109" x="177.54" y="773.2766">[Carga Sprites]</text></g><!--link Managers to Utils--><g class="link" data-entity-1="ent0006" data-entity-2="ent0007" data-link-type="dependency" data-source-line="28" id="lnk15"><path d="M457.48,745.0769 C484.75,745.0769 508.4,745.0769 535.19,745.0769" fill="none" id="Managers-to-Utils" style="stroke:#181818;stroke-width:1;stroke-dasharray:7,7;"/><polygon fill="#181818" points="541.19,745.0769,532.19,741.0769,536.19,745.0769,532.19,749.0769,541.19,745.0769" style="stroke:#181818;stroke-width:1;"/><text fill="#000000" font-family="sans-serif" font-size="13" lengthAdjust="spacing" textLength="38.9175" x="480.2121" y="758.1438">&#171;use&#187;</text><text fill="#000000" font-family="sans-serif" font-size="13" lengthAdjust="spacing" textLength="107.6816" x="445.83" y="773.2766">[Lee/Escribe I/O]</text></g><?plantuml-src XPAnRjim48PtFiKXIpVRpTG6WG7NSG83SHl0zTHgkCXd-HoAfvAK6_UTEdNhwXVBKOuLkIdQIIVoFlx__MHuO5UXnn9oAIjnvE8yxYn1NTfp4zhTiCQbV6TNm0fjeCvEAKxojPUINcrPTXHt5O7uk9REXfCb1QhWtQ2pwD4zfCNt0sCYH_LmpKNj4TuEBk2AiT0cX2N1-EYK0Yncju0mib7W8s_96jFE0MTZyNG6620LS7avaoWUxZoxd2kqms6tUPwJez2q7qe5RYWaGZKd8Me0uHIPEFN9pz3nHx7h_S_0kQvzaCVpgrFcPZ5jslMhdLCTmg_mHv9OX1ezosdx31qMv0yInny5v-ItdBFeGLRkqT8VrXQHxG5gAYN6ubPDdagvfjsyqLXrBaq3WPEJafPQfkk0RpK1MOZqgD6Iot53KAbNoYEMANlJXDhhwRDmlTxm6Dg5IjM1XiElxakAJyKm7RIozKQo8-IvMCT47TnreQdZv2Tlx6R6F9_x8jG6tQNQo7TWzxyABRCNibLBeNUfMQqETLWTQFyxPA-rsiIxr1thROtg9Kl_Suf7GPDE_WyssjGQDcp5rggNcNQEZi6_WcFq1SAyygmlNhNQfd_cU4lKduJSypt1jFyfUm80?></g></svg>